<?xml version='1.0' encoding='utf-8'?>
<svg xmlns="http://www.w3.org/2000/svg" width="800" height="500" viewBox="0 0 800 500"><rect x="80" y="50" width="690" height="370" fill="#ffffff" stroke="#cccccc" /><line x1="80" y1="420" x2="770" y2="420" stroke="#333333" stroke-width="1" /><line x1="80" y1="50" x2="80" y2="420" stroke="#333333" stroke-width="1" /><rect x="149.00" y="261.43" width="110.40" height="158.57" fill="#4C78A8" /><text x="204.20" y="255.43" font-size="10" text-anchor="middle" font-family="sans-serif" fill="#333333">0.092</text><rect x="287.00" y="83.64" width="110.40" height="336.36" fill="#F58518" /><text x="342.20" y="77.64" font-size="10" text-anchor="middle" font-family="sans-serif" fill="#333333">0.195</text><rect x="425.00" y="274.45" width="110.40" height="145.55" fill="#54A24B" /><text x="480.20" y="268.45" font-size="10" text-anchor="middle" font-family="sans-serif" fill="#333333">0.084</text><rect x="563.00" y="244.53" width="110.40" height="175.47" fill="#E45756" /><text x="618.20" y="238.53" font-size="10" text-anchor="middle" font-family="sans-serif" fill="#333333">0.102</text><text x="356.00" y="445.00" font-size="12" text-anchor="middle" font-family="sans-serif" fill="#333333">L=5</text><text x="400.00" y="25.00" font-size="16" text-anchor="middle" font-family="sans-serif" fill="#333333">Comparison by L and ansatz</text><text x="20.00" y="235.00" font-size="12" text-anchor="middle" font-family="sans-serif" fill="#333333">|ΔE| / |E_exact|</text><rect x="80.00" y="458.00" width="12" height="12" fill="#4C78A8" /><text x="98.00" y="468.00" font-size="11" text-anchor="start" font-family="sans-serif" fill="#333333">ADAPT CSE (hybrid)</text><rect x="260.00" y="458.00" width="12" height="12" fill="#F58518" /><text x="278.00" y="468.00" font-size="11" text-anchor="start" font-family="sans-serif" fill="#333333">ADAPT UCCSD (hybrid)</text><rect x="440.00" y="458.00" width="12" height="12" fill="#54A24B" /><text x="458.00" y="468.00" font-size="11" text-anchor="start" font-family="sans-serif" fill="#333333">VQE (CSE ops)</text><rect x="620.00" y="458.00" width="12" height="12" fill="#E45756" /><text x="638.00" y="468.00" font-size="11" text-anchor="start" font-family="sans-serif" fill="#333333">UCCSD</text></svg>